<svg width="61" height="61" viewBox="0 0 61 61" fill="none" xmlns="http://www.w3.org/2000/svg">
<path d="M5.00739 5.00745H9.36384C12.0678 5.00745 14.196 7.33589 13.9706 10.0149L11.8926 34.9517C11.5421 39.0328 14.7718 42.5379 18.8779 42.5379H45.5424C49.1477 42.5379 52.3024 39.5836 52.5778 36.0033L53.9297 17.2255C54.2302 13.0694 51.0755 9.68936 46.8943 9.68936H14.5716" stroke="#292D32" stroke-width="4" stroke-miterlimit="10" stroke-linecap="round" stroke-linejoin="round"/>
<path d="M40.6852 55.0814C42.4136 55.0814 43.8148 53.6802 43.8148 51.9518C43.8148 50.2233 42.4136 48.8221 40.6852 48.8221C38.9567 48.8221 37.5555 50.2233 37.5555 51.9518C37.5555 53.6802 38.9567 55.0814 40.6852 55.0814Z" stroke="#292D32" stroke-width="4" stroke-miterlimit="10" stroke-linecap="round" stroke-linejoin="round"/>
<path d="M20.6556 55.0814C22.384 55.0814 23.7852 53.6802 23.7852 51.9518C23.7852 50.2233 22.384 48.8221 20.6556 48.8221C18.9271 48.8221 17.5259 50.2233 17.5259 51.9518C17.5259 53.6802 18.9271 55.0814 20.6556 55.0814Z" stroke="#292D32" stroke-width="4" stroke-miterlimit="10" stroke-linecap="round" stroke-linejoin="round"/>
<path d="M22.5333 20.0297H52.5778" stroke="#292D32" stroke-width="4" stroke-miterlimit="10" stroke-linecap="round" stroke-linejoin="round"/>
</svg>
